<svg xmlns="http://www.w3.org/2000/svg" fill="#000000" class="bi bi-cart" viewBox="0 0 16 16" id="Cart--Streamline-Bootstrap" height="16" width="16">
  <desc>
    Cart Streamline Icon: https://streamlinehq.com
  </desc>
  <path d="M0 1.5A0.5 0.5 0 0 1 0.5 1H2a0.5 0.5 0 0 1 0.485 0.379L2.89 3H14.5a0.5 0.5 0 0 1 0.491 0.592l-1.5 8A0.5 0.5 0 0 1 13 12H4a0.5 0.5 0 0 1 -0.491 -0.408L2.01 3.607 1.61 2H0.5a0.5 0.5 0 0 1 -0.5 -0.5M3.102 4l1.313 7h8.17l1.313 -7zM5 12a2 2 0 1 0 0 4 2 2 0 0 0 0 -4m7 0a2 2 0 1 0 0 4 2 2 0 0 0 0 -4m-7 1a1 1 0 1 1 0 2 1 1 0 0 1 0 -2m7 0a1 1 0 1 1 0 2 1 1 0 0 1 0 -2" stroke-width="1"></path>
</svg>