<svg xmlns="http://www.w3.org/2000/svg" fill="#000000" class="bi bi-person" viewBox="0 0 16 16" id="Person--Streamline-Bootstrap" height="16" width="16">
  <desc>
    Person Streamline Icon: https://streamlinehq.com
  </desc>
  <path d="M8 8a3 3 0 1 0 0 -6 3 3 0 0 0 0 6m2 -3a2 2 0 1 1 -4 0 2 2 0 0 1 4 0m4 8c0 1 -1 1 -1 1H3s-1 0 -1 -1 1 -4 6 -4 6 3 6 4m-1 -0.004c-0.001 -0.246 -0.154 -0.986 -0.832 -1.664C11.516 10.68 10.289 10 8 10s-3.516 0.68 -4.168 1.332c-0.678 0.678 -0.83 1.418 -0.832 1.664z" stroke-width="1"></path>
</svg>